<?xml version="1.0" standalone="no"?>
<!DOCTYPE svg PUBLIC "-//W3C//DTD SVG 20010904//EN"
 "http://www.w3.org/TR/2001/REC-SVG-20010904/DTD/svg10.dtd">
<svg version="1.0" xmlns="http://www.w3.org/2000/svg"
 width="1024.000000pt" height="1024.000000pt" viewBox="0 0 1024.000000 1024.000000"
 preserveAspectRatio="xMidYMid meet">

<g transform="translate(0.000000,1024.000000) scale(0.100000,-0.100000)"
fill="#000000" stroke="none">
<path d="M2835 6714 c-322 -49 -552 -152 -726 -325 -175 -174 -248 -362 -236
-608 8 -177 46 -286 143 -412 148 -192 366 -299 899 -438 127 -33 259 -70 295
-81 144 -48 264 -130 305 -210 9 -18 19 -56 22 -85 17 -165 -125 -294 -376
-341 -156 -30 -365 -6 -551 63 -148 55 -251 106 -371 184 -97 63 -114 71 -137
63 -17 -6 -73 -71 -160 -186 -113 -149 -133 -181 -128 -202 4 -15 40 -53 89
-94 187 -156 354 -245 590 -313 182 -53 264 -63 492 -64 228 0 274 7 465 67
321 101 572 329 656 593 67 211 46 438 -58 613 -47 80 -176 212 -266 272 -169
113 -326 174 -692 270 -351 92 -455 131 -536 202 -68 60 -92 161 -62 260 15
52 83 127 145 160 103 56 184 73 348 73 123 0 164 -4 231 -23 153 -41 310
-117 411 -198 54 -44 86 -56 107 -41 8 7 57 73 109 147 51 74 107 155 124 180
54 77 53 81 -24 143 -285 229 -545 324 -903 332 -96 2 -188 1 -205 -1z"/>
<path d="M6987 6705 c-658 -107 -1130 -558 -1267 -1210 -27 -130 -37 -385 -21
-521 45 -364 170 -634 401 -864 299 -298 700 -450 1190 -450 388 0 710 96
1013 303 142 97 127 13 127 721 0 537 -2 614 -16 634 l-15 22 -589 0 -589 0
-15 -22 c-13 -19 -16 -59 -16 -233 0 -151 3 -214 12 -223 9 -9 97 -12 335 -12
l323 0 0 -255 0 -255 -52 -29 c-28 -16 -93 -43 -145 -61 -358 -118 -766 -57
-1010 153 -240 206 -353 479 -340 822 11 285 102 502 280 672 91 86 144 123
249 173 140 66 228 85 408 85 130 0 170 -4 245 -24 152 -39 293 -114 452 -242
39 -31 58 -40 75 -36 20 5 281 283 324 345 26 37 10 65 -78 139 -215 182 -446
296 -716 354 -129 27 -436 35 -565 14z"/>
<path d="M4625 6665 l-25 -24 0 -386 0 -387 29 -29 c25 -25 37 -29 84 -29 73
0 83 8 370 297 l237 239 0 150 c0 119 -3 154 -16 172 -15 22 -16 22 -335 22
l-320 0 -24 -25z"/>
<path d="M5060 5715 c-148 -156 -251 -257 -267 -261 -23 -6 -86 -1 -160 12
l-33 6 0 -881 c0 -868 0 -881 20 -901 19 -19 33 -20 344 -20 282 0 327 2 340
16 14 14 16 132 16 1150 0 685 -4 1134 -9 1134 -5 0 -118 -115 -251 -255z"/>
</g>
</svg>
